<svg width="15" height="16" viewBox="0 0 15 16" fill="none" xmlns="http://www.w3.org/2000/svg">
<path d="M5.66667 2.66667H9C9 2.22464 8.82441 1.80072 8.51184 1.48816C8.19928 1.17559 7.77536 1 7.33333 1C6.89131 1 6.46738 1.17559 6.15482 1.48816C5.84226 1.80072 5.66667 2.22464 5.66667 2.66667ZM4.66667 2.66667C4.66667 1.95942 4.94762 1.28115 5.44772 0.781049C5.94781 0.280952 6.62609 0 7.33333 0C8.04058 0 8.71885 0.280952 9.21895 0.781049C9.71905 1.28115 10 1.95942 10 2.66667H14.1667C14.2993 2.66667 14.4265 2.71935 14.5202 2.81311C14.614 2.90688 14.6667 3.03406 14.6667 3.16667C14.6667 3.29927 14.614 3.42645 14.5202 3.52022C14.4265 3.61399 14.2993 3.66667 14.1667 3.66667H13.2933L12.482 13.402C12.423 14.1102 12.1 14.7704 11.577 15.2516C11.054 15.7328 10.3693 15.9999 9.65867 16H5.008C4.29733 15.9999 3.61263 15.7328 3.08967 15.2516C2.56671 14.7704 2.24369 14.1102 2.18467 13.402L1.37333 3.66667H0.5C0.367392 3.66667 0.240215 3.61399 0.146447 3.52022C0.0526784 3.42645 0 3.29927 0 3.16667C0 3.03406 0.0526784 2.90688 0.146447 2.81311C0.240215 2.71935 0.367392 2.66667 0.5 2.66667H4.66667ZM6.33333 6.5C6.33333 6.36739 6.28065 6.24022 6.18689 6.14645C6.09312 6.05268 5.96594 6 5.83333 6C5.70073 6 5.57355 6.05268 5.47978 6.14645C5.38601 6.24022 5.33333 6.36739 5.33333 6.5V12.1667C5.33333 12.2993 5.38601 12.4265 5.47978 12.5202C5.57355 12.614 5.70073 12.6667 5.83333 12.6667C5.96594 12.6667 6.09312 12.614 6.18689 12.5202C6.28065 12.4265 6.33333 12.2993 6.33333 12.1667V6.5ZM8.83333 6C8.70073 6 8.57355 6.05268 8.47978 6.14645C8.38601 6.24022 8.33333 6.36739 8.33333 6.5V12.1667C8.33333 12.2993 8.38601 12.4265 8.47978 12.5202C8.57355 12.614 8.70073 12.6667 8.83333 12.6667C8.96594 12.6667 9.09312 12.614 9.18689 12.5202C9.28066 12.4265 9.33333 12.2993 9.33333 12.1667V6.5C9.33333 6.36739 9.28066 6.24022 9.18689 6.14645C9.09312 6.05268 8.96594 6 8.83333 6Z" fill="#F05572"/>
</svg>
