<svg width="16" height="18" viewBox="0 0 16 18" fill="none" xmlns="http://www.w3.org/2000/svg">
<path d="M7.87457 18C8.47128 18 9.04354 17.763 9.46548 17.341C9.88741 16.9191 10.1245 16.3468 10.1245 15.7501H5.62469C5.62469 16.3468 5.86173 16.9191 6.28367 17.341C6.7056 17.763 7.27787 18 7.87457 18ZM8.99389 1.23729C9.00959 1.08087 8.99233 0.922901 8.94323 0.773562C8.89412 0.624223 8.81427 0.486834 8.7088 0.370255C8.60334 0.253675 8.47461 0.160494 8.33093 0.0967217C8.18724 0.0329489 8.03178 0 7.87457 0C7.71737 0 7.56191 0.0329489 7.41822 0.0967217C7.27453 0.160494 7.14581 0.253675 7.04034 0.370255C6.93488 0.486834 6.85502 0.624223 6.80592 0.773562C6.75682 0.922901 6.73956 1.08087 6.75526 1.23729C5.48376 1.49592 4.34071 2.18602 3.51967 3.19075C2.69863 4.19548 2.25004 5.45308 2.24988 6.75062C2.24988 7.9858 1.68741 13.5003 0 14.6252H15.7491C14.0617 13.5003 13.4993 7.9858 13.4993 6.75062C13.4993 4.02827 11.5644 1.75589 8.99389 1.23729Z" fill="black"/>
</svg>
