<svg width="20" height="24" viewBox="0 0 20 24" fill="none" xmlns="http://www.w3.org/2000/svg">
<path d="M10 23.9024C10.7578 23.9024 11.4845 23.5877 12.0203 23.0274C12.5561 22.4671 12.8571 21.7072 12.8571 20.9148H7.14286C7.14286 21.7072 7.44388 22.4671 7.9797 23.0274C8.51551 23.5877 9.24224 23.9024 10 23.9024ZM11.4214 1.64302C11.4414 1.43531 11.4195 1.22553 11.3571 1.02722C11.2947 0.828914 11.1933 0.646473 11.0594 0.491666C10.9255 0.336859 10.762 0.213123 10.5795 0.128438C10.3971 0.0437532 10.1996 0 10 0C9.80036 0 9.60295 0.0437532 9.42048 0.128438C9.238 0.213123 9.07453 0.336859 8.9406 0.491666C8.80667 0.646473 8.70526 0.828914 8.64291 1.02722C8.58055 1.22553 8.55863 1.43531 8.57857 1.64302C6.96388 1.98645 5.51232 2.90285 4.46966 4.23704C3.42701 5.57123 2.85735 7.24122 2.85714 8.96423C2.85714 10.6044 2.14286 17.9272 0 19.421H20C17.8571 17.9272 17.1429 10.6044 17.1429 8.96423C17.1429 5.34918 14.6857 2.33167 11.4214 1.64302Z" fill="white"/>
</svg>
