<svg width="13" height="17" viewBox="0 0 13 17" fill="none" xmlns="http://www.w3.org/2000/svg">
<path d="M12.7831 6.39156C12.7831 9.30105 8.88826 14.4809 7.18052 16.6181C6.77106 17.1274 6.01206 17.1274 5.6026 16.6181C3.8649 14.4809 0 9.30105 0 6.39156C0 2.86155 2.86155 0 6.39156 0C9.92023 0 12.7831 2.86155 12.7831 6.39156Z" fill="#BFBFBF"/>
<path d="M6.39162 2.89142C6.83558 2.89142 7.26137 3.06779 7.5753 3.38172C7.88923 3.69565 8.0656 4.12144 8.0656 4.5654C8.0656 5.00937 7.88923 5.43515 7.5753 5.74909C7.26137 6.06302 6.83558 6.23938 6.39162 6.23938C5.94765 6.23938 5.52187 6.06302 5.20793 5.74909C4.894 5.43515 4.71764 5.00937 4.71764 4.5654C4.71764 4.12144 4.894 3.69565 5.20793 3.38172C5.52187 3.06779 5.94765 2.89142 6.39162 2.89142ZM6.39162 7.07637C8.24136 7.07637 9.73958 7.82548 9.73958 8.75035C9.73958 9.21261 9.36484 9.58734 8.90259 9.58734H3.88065C3.41839 9.58734 3.04366 9.21261 3.04366 8.75035C3.04366 7.82548 4.54187 7.07637 6.39162 7.07637Z" fill="#F6F8FE"/>
</svg>
