<svg width="13" height="17" viewBox="0 0 13 17" fill="none" xmlns="http://www.w3.org/2000/svg">
<path d="M2.19444 0.372993L3.1936 0.0805893C4.13054 -0.193114 5.13156 0.249741 5.53271 1.11505L6.3313 2.83887C6.67859 3.58943 6.48545 4.47259 5.85401 5.0217L4.09433 6.55002C4.20297 7.46463 4.53912 8.36479 5.10185 9.2505C5.63622 10.1074 6.353 10.8575 7.20975 11.4563L9.32321 10.8103C10.1237 10.5663 10.9965 10.8477 11.4868 11.5081L12.6318 13.0466C13.2029 13.8151 13.0998 14.8742 12.3913 15.5253L11.6326 16.2231C10.8767 16.9176 9.79679 17.17 8.79856 16.8844C6.43994 16.2112 4.27355 14.2129 2.29565 10.8893C0.314973 7.56068 -0.384254 4.73524 0.1989 2.41642C0.444047 1.44061 1.2027 0.662846 2.19444 0.372993Z" fill="#BFBFBF"/>
</svg>
