<svg width="17" height="17" viewBox="0 0 17 17" fill="none" xmlns="http://www.w3.org/2000/svg">
<path d="M11.3341 12.0769L12.7979 10.6131C12.9951 10.4183 13.2446 10.2851 13.516 10.2294C13.7875 10.1737 14.0693 10.198 14.3272 10.2994L16.1112 11.0117C16.3719 11.1175 16.5953 11.2981 16.7535 11.5307C16.9117 11.7633 16.9975 12.0375 17 12.3187V15.5863C16.9985 15.7776 16.9583 15.9667 16.8818 16.1421C16.8053 16.3174 16.6941 16.4755 16.5549 16.6068C16.4157 16.7381 16.2513 16.8398 16.0718 16.9059C15.8922 16.972 15.7011 17.0011 15.51 16.9913C3.00832 16.2137 0.485767 5.62677 0.00870313 1.57499C-0.0134425 1.37602 0.00679137 1.17462 0.0680736 0.984027C0.129356 0.793437 0.230297 0.617983 0.364258 0.469207C0.498218 0.32043 0.662161 0.201704 0.845302 0.120837C1.02844 0.0399712 1.22663 -0.00120191 1.42682 2.67084e-05H4.58329C4.86496 0.000860451 5.13994 0.0859423 5.37286 0.244329C5.60578 0.402715 5.78599 0.627163 5.89031 0.888804L6.60264 2.67289C6.70737 2.92977 6.73409 3.21181 6.67946 3.48378C6.62484 3.75575 6.49128 4.0056 6.29549 4.20211L4.83162 5.66598C4.83162 5.66598 5.67466 11.3711 11.3341 12.0769Z" fill="#1456F1"/>
</svg>
