<svg width="24" height="20" viewBox="0 0 24 20" fill="none" xmlns="http://www.w3.org/2000/svg">
<path d="M4.30859 20C4.01035 20 3.73842 19.9081 3.4928 19.7242C3.24719 19.5396 3.08052 19.2982 2.9928 19L0.0454347 8.36842C-0.0422846 8.12281 -0.0029863 7.89474 0.163329 7.68421C0.330347 7.47368 0.554207 7.36842 0.834908 7.36842H6.1507L10.7823 0.473684C10.87 0.333333 10.9928 0.219298 11.1507 0.131579C11.3086 0.0438596 11.4753 0 11.6507 0C11.8261 0 11.9928 0.0438596 12.1507 0.131579C12.3086 0.219298 12.4314 0.333333 12.5191 0.473684L17.1507 7.36842H22.5191C22.7998 7.36842 23.0237 7.47368 23.1907 7.68421C23.357 7.89474 23.3963 8.12281 23.3086 8.36842L20.3612 19C20.2735 19.2982 20.1068 19.5396 19.8612 19.7242C19.6156 19.9081 19.3437 20 19.0454 20H4.30859ZM11.677 15.7895C12.256 15.7895 12.7517 15.5835 13.1644 15.1716C13.5763 14.7589 13.7823 14.2632 13.7823 13.6842C13.7823 13.1053 13.5763 12.6095 13.1644 12.1968C12.7517 11.7849 12.256 11.5789 11.677 11.5789C11.0981 11.5789 10.6026 11.7849 10.1907 12.1968C9.77807 12.6095 9.57175 13.1053 9.57175 13.6842C9.57175 14.2632 9.77807 14.7589 10.1907 15.1716C10.6026 15.5835 11.0981 15.7895 11.677 15.7895ZM8.70333 7.36842H14.6244L11.6507 2.94737L8.70333 7.36842Z" fill="#1456F1"/>
</svg>
