<svg width="44" height="8" viewBox="0 0 44 8" fill="none" xmlns="http://www.w3.org/2000/svg">
<path fill-rule="evenodd" clip-rule="evenodd" d="M4.91143 3.00114L4 0L3.08857 3.00114H0L2.49886 4.944L1.57143 8L4 6.11143L6.42857 8L5.50114 4.944L8 3.00114H4.91143Z" fill="#F05572"/>
<path fill-rule="evenodd" clip-rule="evenodd" d="M13.9114 3.00114L13 0L12.0886 3.00114H9L11.4989 4.944L10.5714 8L13 6.11143L15.4286 8L14.5011 4.944L17 3.00114H13.9114Z" fill="#F05572"/>
<path fill-rule="evenodd" clip-rule="evenodd" d="M22.9114 3.00114L22 0L21.0886 3.00114H18L20.4989 4.944L19.5714 8L22 6.11143L24.4286 8L23.5011 4.944L26 3.00114H22.9114Z" fill="#F05572"/>
<path fill-rule="evenodd" clip-rule="evenodd" d="M31.9114 3.00114L31 0L30.0886 3.00114H27L29.4989 4.944L28.5714 8L31 6.11143L33.4286 8L32.5011 4.944L35 3.00114H31.9114Z" fill="#F05572"/>
<path fill-rule="evenodd" clip-rule="evenodd" d="M40.9114 3.00114L40 0L39.0886 3.00114H36L38.4989 4.944L37.5714 8L40 6.11143L42.4286 8L41.5011 4.944L44 3.00114H40.9114Z" fill="#7A7C7F"/>
</svg>
