<svg width="17" height="17" viewBox="0 0 17 17" fill="none" xmlns="http://www.w3.org/2000/svg">
<path d="M14.3697 13.4826L16.8236 15.9353C16.9381 16.0538 17.0014 16.2125 17 16.3772C16.9985 16.5419 16.9325 16.6995 16.816 16.816C16.6995 16.9325 16.5419 16.9985 16.3772 17C16.2125 17.0014 16.0538 16.9381 15.9353 16.8236L13.4813 14.3697C11.8777 15.7436 9.80423 16.443 7.69605 16.3211C5.58787 16.1993 3.60882 15.2656 2.17419 13.7161C0.739566 12.1665 -0.0391267 10.1215 0.00151443 8.01019C0.0421556 5.89888 0.898971 3.88537 2.39217 2.39217C3.88537 0.898971 5.89888 0.0421556 8.01019 0.00151443C10.1215 -0.0391267 12.1665 0.739566 13.7161 2.17419C15.2656 3.60882 16.1993 5.58787 16.3211 7.69605C16.443 9.80423 15.7436 11.8777 14.3697 13.4813V13.4826ZM8.16748 15.0783C10.0004 15.0783 11.7582 14.3502 13.0542 13.0542C14.3502 11.7582 15.0783 10.0004 15.0783 8.16748C15.0783 6.33461 14.3502 4.5768 13.0542 3.28076C11.7582 1.98473 10.0004 1.25662 8.16748 1.25662C6.33461 1.25662 4.5768 1.98473 3.28076 3.28076C1.98473 4.5768 1.25662 6.33461 1.25662 8.16748C1.25662 10.0004 1.98473 11.7582 3.28076 13.0542C4.5768 14.3502 6.33461 15.0783 8.16748 15.0783Z" fill="black" fill-opacity="0.5"/>
</svg>
