<svg width="8" height="8" viewBox="0 0 8 8" fill="none" xmlns="http://www.w3.org/2000/svg">
<g clip-path="url(#clip0_14_971)">
<path d="M1.33344 2V6.88889C1.33137 6.9744 1.34618 7.05948 1.377 7.13927C1.40783 7.21906 1.45407 7.29199 1.51309 7.3539C1.57211 7.41581 1.64276 7.46549 1.72098 7.50009C1.79921 7.53469 1.88349 7.55354 1.969 7.55556H6.02011C6.10656 7.55499 6.19204 7.53721 6.27155 7.50326C6.35106 7.46931 6.42302 7.41986 6.48321 7.3578C6.54341 7.29574 6.59064 7.22232 6.62216 7.14181C6.65368 7.0613 6.66884 6.97532 6.66678 6.88889V2H1.33344ZM3.33344 6.44444H2.889V3.11111H3.33344V6.44444ZM5.11122 6.44444H4.66678V3.11111H5.11122V6.44444Z" fill="white"/>
<path d="M6.82892 1.11112H5.11114V0.888902C5.11114 0.771028 5.06431 0.657982 4.98096 0.574633C4.89761 0.491283 4.78457 0.444458 4.66669 0.444458H3.28892C3.17891 0.455513 3.07697 0.507176 3.003 0.589358C2.92904 0.671539 2.88836 0.778339 2.88892 0.888902V1.11112H1.11114C1.0522 1.11112 0.995678 1.13454 0.954003 1.17621C0.912329 1.21789 0.888916 1.27441 0.888916 1.33335C0.888916 1.39228 0.912329 1.44881 0.954003 1.49048C0.995678 1.53216 1.0522 1.55557 1.11114 1.55557H6.82892C6.88785 1.55557 6.94438 1.53216 6.98605 1.49048C7.02773 1.44881 7.05114 1.39228 7.05114 1.33335C7.05114 1.27441 7.02773 1.21789 6.98605 1.17621C6.94438 1.13454 6.88785 1.11112 6.82892 1.11112Z" fill="white"/>
</g>
<defs>
<clipPath id="clip0_14_971">
<rect width="8" height="8" fill="white"/>
</clipPath>
</defs>
</svg>
