<svg width="20" height="20" viewBox="0 0 20 20" fill="none" xmlns="http://www.w3.org/2000/svg">
<path d="M3.75 3.125C3.75 2.2962 4.07924 1.50134 4.66529 0.915291C5.25134 0.32924 6.0462 0 6.875 0C7.7038 0 8.49866 0.32924 9.08471 0.915291C9.67076 1.50134 10 2.2962 10 3.125C10 2.2962 10.3292 1.50134 10.9153 0.915291C11.5013 0.32924 12.2962 0 13.125 0C13.9538 0 14.7487 0.32924 15.3347 0.915291C15.9208 1.50134 16.25 2.2962 16.25 3.125V3.1325C16.25 3.22 16.25 3.47 16.2025 3.75H18.75C19.0815 3.75 19.3995 3.8817 19.6339 4.11612C19.8683 4.35054 20 4.66848 20 5V6.25C20 6.58152 19.8683 6.89946 19.6339 7.13388C19.3995 7.3683 19.0815 7.5 18.75 7.5H1.25C0.918479 7.5 0.600537 7.3683 0.366117 7.13388C0.131696 6.89946 0 6.58152 0 6.25V5C0 4.66848 0.131696 4.35054 0.366117 4.11612C0.600537 3.8817 0.918479 3.75 1.25 3.75H3.7975C3.76448 3.54585 3.7486 3.3393 3.75 3.1325V3.125ZM5.085 3.75H8.75V3.125C8.75 2.87877 8.7015 2.63495 8.60727 2.40747C8.51305 2.17998 8.37494 1.97328 8.20083 1.79917C8.02672 1.62506 7.82002 1.48695 7.59253 1.39273C7.36505 1.2985 7.12123 1.25 6.875 1.25C6.62877 1.25 6.38495 1.2985 6.15747 1.39273C5.92998 1.48695 5.72328 1.62506 5.54917 1.79917C5.37506 1.97328 5.23695 2.17998 5.14273 2.40747C5.0485 2.63495 5 2.87877 5 3.125C5 3.23125 5.0025 3.4675 5.05625 3.6625C5.06376 3.69231 5.07337 3.72155 5.085 3.75ZM11.25 3.75H14.915C14.9265 3.7215 14.9361 3.69227 14.9438 3.6625C14.9975 3.4675 15 3.23125 15 3.125C15 2.62772 14.8025 2.15081 14.4508 1.79917C14.0992 1.44754 13.6223 1.25 13.125 1.25C12.6277 1.25 12.1508 1.44754 11.7992 1.79917C11.4475 2.15081 11.25 2.62772 11.25 3.125V3.75ZM18.75 8.75V18.125C18.75 18.6223 18.5525 19.0992 18.2008 19.4508C17.8492 19.8025 17.3723 20 16.875 20H11.25V8.75H18.75ZM3.125 20C2.62772 20 2.15081 19.8025 1.79917 19.4508C1.44754 19.0992 1.25 18.6223 1.25 18.125V8.75H8.75V20H3.125Z" fill="#1456F1"/>
</svg>
