<svg width="18" height="17" viewBox="0 0 18 17" fill="none" xmlns="http://www.w3.org/2000/svg">
<path d="M8.94752 3.11444L8.14559 2.27918C6.26323 0.318521 2.81168 0.995119 1.56572 3.46011C0.980768 4.61951 0.84879 6.29343 1.91691 8.42976C2.94589 10.4868 5.08662 12.9506 8.94752 15.6343C12.8084 12.9506 14.948 10.4868 15.9781 8.42976C17.0463 6.2923 16.9154 4.61951 16.3293 3.46011C15.0834 0.995119 11.6318 0.317387 9.74946 2.27805L8.94752 3.11444ZM8.94752 17C-8.20175 5.5171 3.6673 -3.44527 8.75068 1.29545C8.81778 1.35778 8.88377 1.42238 8.94752 1.48925C9.01063 1.42244 9.07629 1.35817 9.14437 1.29658C14.2266 -3.44753 26.0968 5.51597 8.94752 17Z" fill="#F05572"/>
</svg>
