<svg width="12" height="12" viewBox="0 0 12 12" fill="none" xmlns="http://www.w3.org/2000/svg">
<path d="M2.5 3.23077C2.5 4.08762 2.86875 4.90938 3.52513 5.51527C4.1815 6.12115 5.07174 6.46154 6 6.46154C6.92826 6.46154 7.8185 6.12115 8.47487 5.51527C9.13125 4.90938 9.5 4.08762 9.5 3.23077C9.5 2.37392 9.13125 1.55216 8.47487 0.94627C7.8185 0.340384 6.92826 0 6 0C5.07174 0 4.1815 0.340384 3.52513 0.94627C2.86875 1.55216 2.5 2.37392 2.5 3.23077ZM11 12H0.5C0.367392 12 0.240215 11.9514 0.146447 11.8648C0.0526785 11.7783 0 11.6609 0 11.5385V10.1538C0 9.54181 0.263392 8.95484 0.732233 8.52206C1.20107 8.08928 1.83696 7.84615 2.5 7.84615H9.5C10.163 7.84615 10.7989 8.08928 11.2678 8.52206C11.7366 8.95484 12 9.54181 12 10.1538V11.5385C12 11.6609 11.9473 11.7783 11.8536 11.8648C11.7598 11.9514 11.6326 12 11.5 12H11Z" fill="#BFBFBF"/>
</svg>
