<svg width="19" height="19" viewBox="0 0 19 19" fill="none" xmlns="http://www.w3.org/2000/svg">
<path d="M1.93815 12.4098C1.19538 12.9805 0.77027 13.643 0.77027 14.3498C0.77027 16.4925 4.67871 18.2296 9.5 18.2296C14.3213 18.2296 18.2297 16.4925 18.2297 14.3498C18.2297 13.643 17.8046 12.9805 17.0619 12.4098" stroke="black" stroke-opacity="0.5" stroke-width="1.5" stroke-linecap="round" stroke-linejoin="round"/>
<path d="M9.50017 14.3499C12.7144 12.841 15.32 10.1389 15.32 6.80564C15.32 3.47239 12.7144 0.77027 9.50017 0.77027C6.28597 0.77027 3.68035 3.47239 3.68035 6.80564C3.68035 10.1389 6.28597 12.841 9.50017 14.3499Z" stroke="black" stroke-opacity="0.5" stroke-width="1.5" stroke-linecap="round" stroke-linejoin="round"/>
<path d="M9.5 4.16515V9.015" stroke="black" stroke-opacity="0.5" stroke-width="1.5" stroke-linecap="round" stroke-linejoin="round"/>
<path d="M7.0751 6.59017H11.925" stroke="black" stroke-opacity="0.5" stroke-width="1.5" stroke-linecap="round" stroke-linejoin="round"/>
</svg>
