<svg width="22" height="22" viewBox="0 0 22 22" fill="none" xmlns="http://www.w3.org/2000/svg">
<g clip-path="url(#clip0_14_859)">
<path d="M19.8193 11L21.1514 12.665C21.2803 12.8298 21.3805 13.0088 21.4521 13.2021C21.5238 13.3955 21.5596 13.5996 21.5596 13.8145C21.5596 14.0293 21.5273 14.2334 21.4629 14.4268C21.3984 14.6201 21.3053 14.7956 21.1836 14.9531C21.0618 15.1107 20.915 15.2467 20.7432 15.3613C20.5713 15.4759 20.3851 15.5618 20.1846 15.6191L18.1328 16.1885C18.1471 16.5537 18.165 16.9225 18.1865 17.2949C18.208 17.6673 18.2223 18.0397 18.2295 18.4121C18.2295 18.6699 18.1829 18.9098 18.0898 19.1318C17.9967 19.3538 17.8643 19.5472 17.6924 19.7119C17.5205 19.8766 17.3236 20.0091 17.1016 20.1094C16.8796 20.2096 16.6361 20.2598 16.3711 20.2598C16.1491 20.2598 15.9307 20.2204 15.7158 20.1416L13.7285 19.3896L12.5576 21.1621C12.3857 21.4271 12.1637 21.6312 11.8916 21.7744C11.6195 21.9176 11.3223 21.9928 11 22C10.6849 22 10.3913 21.9284 10.1191 21.7852C9.847 21.6419 9.62142 21.4342 9.44238 21.1621L8.27148 19.3896L6.28418 20.1416C6.06934 20.2204 5.85091 20.2598 5.62891 20.2598C5.37109 20.2598 5.13119 20.2132 4.90918 20.1201C4.68717 20.027 4.49023 19.8945 4.31836 19.7227C4.14648 19.5508 4.014 19.3538 3.9209 19.1318C3.8278 18.9098 3.77767 18.6699 3.77051 18.4121C3.77051 18.0397 3.78125 17.6673 3.80273 17.2949C3.82422 16.9225 3.8457 16.5537 3.86719 16.1885L1.81543 15.6191C1.60775 15.5618 1.42155 15.4759 1.25684 15.3613C1.09212 15.2467 0.948893 15.1107 0.827148 14.9531C0.705404 14.7956 0.612305 14.6201 0.547852 14.4268C0.483398 14.2334 0.447591 14.0293 0.44043 13.8145C0.44043 13.6068 0.476237 13.4062 0.547852 13.2129C0.619466 13.0195 0.719727 12.8369 0.848633 12.665L2.18066 11L0.848633 9.33496C0.576497 8.99837 0.44043 8.61523 0.44043 8.18555C0.44043 7.9707 0.472656 7.7666 0.537109 7.57324C0.601562 7.37988 0.694661 7.20443 0.816406 7.04688C0.938151 6.88932 1.08138 6.75326 1.24609 6.63867C1.41081 6.52409 1.60059 6.43815 1.81543 6.38086L3.86719 5.81152C3.85286 5.44629 3.83496 5.07747 3.81348 4.70508C3.79199 4.33268 3.77767 3.96029 3.77051 3.58789C3.77051 3.33008 3.81706 3.09017 3.91016 2.86816C4.00326 2.64616 4.13574 2.4528 4.30762 2.28809C4.47949 2.12337 4.67643 1.99089 4.89844 1.89062C5.12044 1.79036 5.36393 1.74023 5.62891 1.74023C5.85091 1.74023 6.06934 1.77962 6.28418 1.8584L8.27148 2.61035L9.44238 0.837891C9.61426 0.572917 9.83626 0.368815 10.1084 0.225586C10.3805 0.0823568 10.6777 0.00716146 11 0C11.3151 0 11.6087 0.0716146 11.8809 0.214844C12.153 0.358073 12.3786 0.565755 12.5576 0.837891L13.7285 2.61035L15.7158 1.8584C15.9307 1.77962 16.1491 1.74023 16.3711 1.74023C16.6289 1.74023 16.8688 1.78678 17.0908 1.87988C17.3128 1.97298 17.5098 2.10547 17.6816 2.27734C17.8535 2.44922 17.986 2.64616 18.0791 2.86816C18.1722 3.09017 18.2223 3.33008 18.2295 3.58789C18.2295 3.96029 18.2188 4.33268 18.1973 4.70508C18.1758 5.07747 18.1543 5.44629 18.1328 5.81152L20.1846 6.38086C20.3851 6.43815 20.5713 6.52409 20.7432 6.63867C20.915 6.75326 21.0583 6.88932 21.1729 7.04688C21.2874 7.20443 21.3805 7.37988 21.4521 7.57324C21.5238 7.7666 21.5596 7.9707 21.5596 8.18555C21.5596 8.61523 21.4235 8.99837 21.1514 9.33496L19.8193 11ZM9.625 14.9639L15.7373 8.8623L14.5127 7.6377L9.625 12.5361L7.4873 10.3877L6.2627 11.6123L9.625 14.9639Z" fill="#1456F1"/>
</g>
<defs>
<clipPath id="clip0_14_859">
<rect width="22" height="22" fill="white"/>
</clipPath>
</defs>
</svg>
